<?xml version="1.0" standalone="no"?>
<!DOCTYPE svg PUBLIC "-//W3C//DTD SVG 20010904//EN"
 "http://www.w3.org/TR/2001/REC-SVG-20010904/DTD/svg10.dtd">
<svg version="1.0" xmlns="http://www.w3.org/2000/svg"
 width="256.000000pt" height="256.000000pt" viewBox="0 0 256.000000 256.000000"
 preserveAspectRatio="xMidYMid meet">

<g transform="translate(0.000000,256.000000) scale(0.100000,-0.100000)"
fill="#000000" stroke="none">
<path d="M1243 1720 c-48 -15 -99 -69 -112 -118 -26 -96 17 -160 138 -207 88
-33 126 -73 117 -123 -10 -63 -63 -93 -138 -78 -53 10 -62 20 -60 65 3 41 3
41 -33 41 l-36 0 3 -77 3 -78 65 -13 c74 -16 173 -5 216 23 63 41 88 135 56
208 -21 47 -66 81 -146 108 -57 20 -106 69 -106 106 0 47 41 78 100 77 60 -1
78 -14 72 -54 -4 -29 -3 -30 32 -30 l36 0 0 65 c0 55 -3 66 -21 75 -28 16
-147 22 -186 10z"/>
<path d="M558 1713 c-67 -4 -68 -4 -68 -33 0 -24 5 -29 28 -32 l27 -3 0 -225
0 -225 -28 -3 c-24 -3 -28 -7 -25 -30 3 -27 4 -27 88 -30 168 -7 300 32 354
102 37 49 56 118 56 205 0 127 -36 198 -123 242 -35 18 -175 41 -222 37 -11
-1 -50 -3 -87 -5z m270 -100 c65 -52 89 -171 57 -281 -27 -91 -101 -142 -204
-142 l-41 0 0 231 0 232 75 -5 c65 -4 81 -9 113 -35z"/>
<path d="M1563 1712 c-21 -3 -23 -8 -23 -73 l0 -69 36 0 c35 0 35 1 32 38 l-3
37 58 3 57 3 0 -231 0 -230 -41 0 c-38 0 -40 -1 -37 -27 l3 -28 128 -3 127 -3
0 31 c0 28 -2 30 -40 30 l-40 0 0 230 0 231 58 -3 57 -3 0 -35 c0 -33 2 -35
35 -35 l35 0 3 67 3 67 -213 3 c-117 2 -223 2 -235 0z"/>
<path d="M2064 1707 c-11 -30 0 -52 29 -55 l27 -3 -2 -227 -3 -227 -28 -3
c-24 -3 -28 -7 -25 -30 l3 -27 140 1 c155 0 198 10 250 56 84 73 65 192 -38
238 l-39 18 31 22 c86 61 80 174 -12 222 -36 20 -61 23 -184 26 -122 3 -144 2
-149 -11z m280 -78 c35 -27 37 -98 4 -128 -23 -22 -71 -35 -109 -29 -23 3 -24
7 -27 91 l-3 87 54 0 c40 0 61 -6 81 -21z m35 -255 c26 -22 31 -33 31 -69 0
-64 -29 -93 -106 -107 -93 -17 -94 -16 -94 102 l0 100 69 0 c60 0 74 -3 100
-26z"/>
<path d="M210 1681 c0 -25 4 -30 28 -33 l27 -3 0 -225 0 -225 -27 -3 c-24 -3
-28 -8 -28 -33 l0 -29 99 0 c91 0 100 2 106 20 9 27 -1 40 -30 40 -17 0 -26 7
-30 23 -3 12 -4 114 -3 227 l3 205 27 3 c28 3 41 22 32 47 -5 12 -26 15 -105
15 l-99 0 0 -29z"/>
<path d="M410 994 c0 -11 -10 -24 -22 -29 -30 -13 -32 -58 -3 -63 20 -4 20 -3
1 11 -22 16 -16 47 9 47 10 0 15 -10 15 -30 0 -16 4 -30 9 -30 11 0 9 96 -2
106 -4 4 -7 -1 -7 -12z"/>
<path d="M1098 997 c-12 -29 -10 -63 3 -50 6 6 9 23 7 39 -2 24 -4 26 -10 11z"/>
<path d="M2487 990 c4 -15 0 -20 -15 -20 -27 0 -45 -24 -37 -50 5 -15 14 -20
36 -18 28 2 29 4 29 55 0 29 -4 53 -9 53 -5 0 -7 -9 -4 -20z m-2 -55 c0 -11
-8 -21 -17 -23 -14 -3 -18 3 -18 23 0 20 4 26 18 23 9 -2 17 -12 17 -23z"/>
<path d="M229 952 c-2 -32 0 -52 6 -52 7 0 9 16 7 38 -6 65 -8 68 -13 14z"/>
<path d="M950 996 c0 -2 7 -6 15 -10 8 -3 15 -1 15 4 0 6 -7 10 -15 10 -8 0
-15 -2 -15 -4z"/>
<path d="M1599 952 c-2 -32 0 -52 6 -52 7 0 9 16 7 38 -6 65 -8 68 -13 14z"/>
<path d="M2120 951 c0 -47 2 -51 24 -51 28 0 51 24 40 42 -5 7 -8 22 -9 33 0
14 -8 21 -27 23 -27 3 -28 2 -28 -47z m42 24 c0 -5 -5 -11 -11 -13 -6 -2 -11
4 -11 13 0 9 5 15 11 13 6 -2 11 -8 11 -13z m8 -50 c0 -8 -7 -15 -15 -15 -8 0
-15 7 -15 15 0 8 7 15 15 15 8 0 15 -7 15 -15z"/>
<path d="M931 973 c-1 -14 7 -24 20 -28 14 -5 19 -13 16 -26 -3 -10 -1 -17 4
-13 16 10 9 43 -10 49 -11 3 -22 14 -24 23 -4 13 -5 11 -6 -5z"/>
<path d="M1147 983 c-6 -11 4 -83 12 -83 7 0 6 79 -2 86 -3 3 -7 2 -10 -3z"/>
<path d="M1808 980 c-5 -17 3 -80 11 -80 7 0 6 79 -2 86 -3 3 -7 0 -9 -6z"/>
<path d="M274 935 c0 -19 4 -35 8 -35 4 0 8 16 8 35 0 19 -4 35 -8 35 -4 0 -8
-16 -8 -35z"/>
<path d="M318 935 c2 -19 8 -35 13 -35 10 0 12 31 3 54 -11 28 -20 17 -16 -19z"/>
<path d="M457 963 c-11 -10 -8 -51 4 -59 8 -4 9 1 4 15 -4 13 -1 28 5 36 12
15 0 22 -13 8z"/>
<path d="M495 935 c0 -18 3 -31 8 -28 4 2 7 15 7 28 0 13 -3 26 -7 28 -5 3 -8
-10 -8 -28z"/>
<path d="M535 935 c0 -19 5 -35 10 -35 12 0 12 63 -1 67 -5 2 -9 -13 -9 -32z"/>
<path d="M579 957 c7 -9 11 -26 8 -37 -3 -12 0 -20 8 -20 18 0 4 62 -15 68
-13 5 -13 3 -1 -11z"/>
<path d="M637 963 c-9 -9 -9 -51 1 -56 4 -3 7 10 7 29 0 19 0 34 -1 34 0 0 -4
-3 -7 -7z"/>
<path d="M664 949 c0 -10 4 -19 8 -19 4 0 8 6 8 14 0 8 -4 17 -8 20 -4 2 -8
-4 -8 -15z"/>
<path d="M704 958 c-4 -6 2 -17 12 -25 10 -8 18 -20 16 -26 -2 -8 1 -8 10 1
11 11 9 16 -11 31 -23 18 -23 19 -5 24 15 4 16 5 2 6 -9 0 -20 -4 -24 -11z"/>
<path d="M770 936 c0 -20 5 -36 10 -36 6 0 10 13 10 29 0 17 -4 33 -10 36 -6
4 -10 -8 -10 -29z"/>
<path d="M820 961 c0 -6 7 -8 15 -5 8 4 15 2 15 -4 0 -6 -6 -13 -12 -15 -8 -3
-5 -6 6 -6 12 -1 16 -6 12 -16 -3 -8 -1 -15 5 -15 6 0 9 15 7 33 -2 24 -8 33
-25 35 -13 2 -23 -1 -23 -7z"/>
<path d="M1039 962 c8 -6 12 -20 9 -37 -5 -25 -4 -26 11 -11 17 18 7 46 -20
54 -12 3 -12 2 0 -6z"/>
<path d="M1194 961 c3 -4 10 -21 16 -36 6 -15 13 -25 16 -22 8 8 -18 67 -29
67 -5 0 -6 -4 -3 -9z"/>
<path d="M1240 961 c0 -6 5 -13 10 -16 6 -3 10 1 10 9 0 9 -4 16 -10 16 -5 0
-10 -4 -10 -9z"/>
<path d="M1320 961 c0 -6 7 -8 15 -5 8 4 15 2 15 -4 0 -5 -7 -12 -15 -16 -8
-3 -14 -13 -14 -23 1 -17 2 -17 6 0 2 9 11 17 18 17 7 0 16 -8 19 -17 2 -10 4
-2 3 17 -2 28 -6 36 -24 38 -13 2 -23 -1 -23 -7z"/>
<path d="M1400 936 c0 -28 4 -36 18 -36 13 0 14 2 3 9 -8 5 -12 18 -8 30 3 12
1 24 -4 27 -5 3 -9 -11 -9 -30z"/>
<path d="M1471 956 c-13 -16 -6 -56 9 -56 5 0 7 7 4 15 -4 11 0 15 16 15 15 0
20 5 18 17 -4 23 -31 28 -47 9z m34 -6 c3 -5 -1 -10 -9 -10 -9 0 -16 5 -16 10
0 6 4 10 9 10 6 0 13 -4 16 -10z"/>
<path d="M1697 949 c4 -13 9 -17 15 -11 11 11 3 32 -12 32 -4 0 -6 -9 -3 -21z"/>
<path d="M1747 963 c-12 -12 -7 -22 16 -34 22 -12 22 -12 4 9 -18 20 -18 20 0
25 14 4 14 5 2 6 -9 0 -19 -2 -22 -6z"/>
<path d="M1863 935 c-1 -19 3 -35 8 -35 5 0 9 16 9 35 0 19 -4 35 -8 35 -4 0
-8 -16 -9 -35z"/>
<path d="M1905 935 c0 -19 5 -35 10 -35 12 0 12 63 -1 67 -5 2 -9 -13 -9 -32z"/>
<path d="M1949 957 c7 -9 11 -26 8 -37 -3 -12 0 -20 8 -20 18 0 4 62 -15 68
-13 5 -13 3 -1 -11z"/>
<path d="M2007 963 c-9 -9 -9 -51 1 -56 4 -3 7 10 7 29 0 19 0 34 -1 34 0 0
-4 -3 -7 -7z"/>
<path d="M2049 943 c0 -16 -2 -38 -3 -51 -2 -12 1 -19 5 -15 10 11 16 93 7 93
-5 0 -8 -12 -9 -27z"/>
<path d="M2252 950 c9 -14 9 -22 -3 -37 -13 -16 -13 -17 4 -4 21 16 22 47 2
55 -12 4 -13 2 -3 -14z"/>
<path d="M2296 961 c-3 -5 3 -7 14 -4 11 3 20 1 20 -5 0 -5 -9 -12 -20 -15
-20 -5 -29 -37 -10 -37 5 0 7 7 4 15 -4 9 0 15 9 15 9 0 18 -8 21 -17 2 -10 4
-2 3 17 -2 34 -27 54 -41 31z"/>
<path d="M2370 935 c0 -22 5 -35 13 -35 9 0 12 11 9 35 -2 19 -8 35 -13 35 -5
0 -9 -16 -9 -35z"/>
<path d="M1003 944 c-3 -9 2 -23 13 -32 17 -16 17 -16 5 0 -7 10 -11 25 -7 33
3 8 3 15 0 15 -2 0 -7 -7 -11 -16z"/>
<path d="M1662 934 c2 -15 10 -30 18 -32 13 -4 13 -3 2 10 -7 9 -9 18 -3 20 5
1 2 9 -6 17 -13 11 -14 9 -11 -15z"/>
<path d="M2210 936 c0 -14 4 -27 8 -30 5 -3 6 8 4 25 -5 35 -12 38 -12 5z"/>
<path d="M1260 921 c0 -6 5 -13 10 -16 6 -3 10 1 10 9 0 9 -4 16 -10 16 -5 0
-10 -4 -10 -9z"/>
<path d="M927 909 c7 -7 15 -10 18 -7 3 3 -2 9 -12 12 -14 6 -15 5 -6 -5z"/>
<path d="M1090 910 c0 -5 5 -10 10 -10 6 0 10 5 10 10 0 6 -4 10 -10 10 -5 0
-10 -4 -10 -10z"/>
</g>
</svg>
