<?xml version="1.0" standalone="no"?>
<!DOCTYPE svg PUBLIC "-//W3C//DTD SVG 20010904//EN"
 "http://www.w3.org/TR/2001/REC-SVG-20010904/DTD/svg10.dtd">
<svg version="1.0" xmlns="http://www.w3.org/2000/svg"
 width="256.000000pt" height="256.000000pt" viewBox="0 0 256.000000 256.000000"
 preserveAspectRatio="xMidYMid meet">

<g transform="translate(0.000000,256.000000) scale(0.100000,-0.100000)"
fill="#000000" stroke="none">
<path d="M1135 1706 c-86 -39 -128 -142 -91 -230 17 -41 54 -68 147 -106 88
-36 109 -55 116 -108 5 -34 1 -44 -19 -65 -32 -32 -91 -42 -143 -25 -38 12
-40 15 -43 61 -3 46 -4 47 -38 47 l-34 0 0 -84 0 -84 44 -11 c70 -17 184 -14
231 8 49 22 73 48 91 98 40 114 -15 200 -160 249 -88 30 -128 94 -96 154 13
25 71 43 114 34 42 -7 51 -18 51 -59 0 -28 3 -30 35 -30 l35 0 0 75 0 75 -30
6 c-54 12 -179 9 -210 -5z"/>
<path d="M70 1675 c0 -32 2 -35 30 -35 l30 0 0 -234 0 -235 -27 -3 c-23 -2
-29 -8 -31 -35 l-3 -33 111 0 111 0 -3 33 c-2 27 -8 33 -30 35 l-28 3 0 235 0
234 31 0 c28 0 30 2 27 33 l-3 32 -107 3 -108 3 0 -36z"/>
<path d="M370 1676 c0 -30 3 -35 28 -38 l27 -3 3 -232 2 -232 -27 -3 c-23 -2
-29 -8 -31 -35 l-3 -33 134 0 c215 0 306 39 364 158 25 51 28 68 28 157 0 89
-3 106 -28 156 -53 108 -131 139 -354 139 l-143 0 0 -34z m318 -55 c76 -39
102 -94 102 -213 -1 -158 -64 -234 -201 -240 l-64 -3 -3 238 -2 237 65 0 c45
0 78 -6 103 -19z"/>
<path d="M1464 1685 c-3 -14 -4 -49 0 -78 3 -28 6 -53 6 -54 0 -2 16 -3 35 -3
35 0 35 0 35 45 l0 45 60 0 60 0 0 -235 0 -235 -40 0 c-34 0 -41 -4 -46 -24
-3 -14 -3 -30 1 -35 4 -7 57 -11 141 -11 l134 0 0 35 c0 35 0 35 -45 35 l-45
0 2 233 3 232 63 3 62 3 -2 -43 -3 -43 38 -3 37 -3 0 80 0 81 -245 0 -245 0
-6 -25z"/>
<path d="M2020 1675 c0 -32 2 -35 30 -35 l30 0 0 -235 0 -235 -30 0 c-28 0
-30 -3 -30 -35 l0 -35 143 0 c177 0 229 13 280 69 42 46 54 97 38 151 -12 41
-58 86 -97 96 -13 3 -24 8 -24 10 0 2 19 21 43 43 40 38 42 42 42 99 0 69 -16
94 -80 123 -33 15 -66 19 -192 19 l-153 0 0 -35z m301 -64 c59 -60 24 -139
-68 -151 -27 -3 -55 -4 -61 -2 -8 2 -12 34 -12 93 l0 89 56 0 c48 0 59 -4 85
-29z m40 -269 c48 -54 35 -123 -31 -157 -15 -8 -54 -16 -87 -17 l-58 -3 -3
109 -3 108 77 -4 c71 -3 78 -6 105 -36z"/>
<path d="M277 951 c4 -15 -1 -20 -19 -23 -19 -2 -23 -9 -23 -38 0 -33 2 -35
35 -36 l35 -2 -3 59 c-3 40 -8 59 -17 59 -8 0 -11 -7 -8 -19z m3 -61 c0 -32
-23 -42 -34 -15 -8 21 3 45 20 45 9 0 14 -11 14 -30z"/>
<path d="M999 953 c0 -10 -1 -37 -2 -61 -2 -34 1 -42 16 -42 14 0 15 3 6 19
-7 10 -9 26 -6 35 9 22 37 20 37 -3 0 -32 11 -51 29 -50 10 0 11 2 4 6 -16 6
-17 63 -2 63 6 0 3 7 -6 17 -13 13 -18 14 -25 3 -5 -8 -15 -10 -26 -6 -18 7
-18 8 0 22 19 14 19 14 -2 14 -14 0 -22 -6 -23 -17z"/>
<path d="M2457 951 c4 -15 -1 -20 -19 -23 -19 -2 -23 -9 -23 -38 0 -33 2 -35
35 -36 l35 -2 -3 59 c-3 40 -8 59 -17 59 -8 0 -11 -7 -8 -19z m1 -58 c-3 -30
-23 -41 -31 -18 -9 21 2 45 20 45 10 0 13 -9 11 -27z"/>
<path d="M85 905 c0 -37 4 -55 13 -55 8 0 12 18 12 55 0 37 -4 55 -12 55 -9 0
-13 -18 -13 -55z"/>
<path d="M660 950 c0 -5 5 -10 10 -10 6 0 10 5 10 10 0 6 -4 10 -10 10 -5 0
-10 -4 -10 -10z"/>
<path d="M825 943 c-4 -13 2 -25 22 -40 21 -17 25 -25 16 -34 -9 -9 -16 -9
-29 2 -15 12 -17 12 -12 -1 6 -20 42 -24 57 -7 15 18 5 44 -20 52 -10 4 -19
13 -19 21 0 17 26 19 33 2 3 -8 6 -6 6 5 1 23 -44 23 -54 0z"/>
<path d="M1501 943 c0 -11 3 -13 6 -5 12 30 25 8 21 -38 -2 -39 0 -50 12 -50
12 0 14 11 12 50 -4 46 9 68 21 38 3 -8 6 -6 6 5 1 13 -7 17 -39 17 -32 0 -40
-4 -39 -17z"/>
<path d="M1810 949 c0 -5 5 -7 10 -4 6 3 10 8 10 11 0 2 -4 4 -10 4 -5 0 -10
-5 -10 -11z"/>
<path d="M2075 905 c0 -52 1 -55 25 -55 40 0 49 12 46 60 -2 44 -3 45 -37 48
l-34 3 0 -56z m53 27 c2 -7 -3 -12 -12 -12 -9 0 -16 7 -16 16 0 17 22 14 28
-4z m8 -43 c3 -6 0 -15 -7 -20 -22 -14 -29 -11 -29 11 0 21 24 27 36 9z"/>
<path d="M1748 938 c-2 -7 -2 -29 2 -48 3 -25 11 -36 25 -38 15 -2 16 -1 7 6
-8 5 -13 22 -12 38 3 42 1 54 -9 54 -5 0 -11 -6 -13 -12z"/>
<path d="M135 888 c0 -28 4 -38 15 -38 12 0 15 8 12 36 -3 28 -1 35 9 32 8 -3
14 -19 14 -36 0 -24 4 -32 17 -32 10 0 16 6 14 13 -3 6 -7 24 -10 39 -5 23
-11 27 -39 26 -30 -1 -32 -3 -32 -40z"/>
<path d="M332 918 c-27 -27 -3 -73 35 -66 27 5 25 72 -2 76 -11 1 -26 -3 -33
-10z m43 -28 c0 -36 -29 -33 -33 3 -3 23 0 28 15 25 12 -2 18 -12 18 -28z"/>
<path d="M415 888 c0 -22 5 -38 11 -38 7 0 11 14 10 33 -1 22 3 32 14 32 10 0
15 -10 15 -32 0 -21 5 -33 13 -33 9 0 12 6 8 16 -3 9 -6 26 -6 40 0 20 -5 23
-32 22 -31 -1 -33 -3 -33 -40z"/>
<path d="M514 916 c-12 -31 0 -61 26 -63 25 -3 25 -3 3 7 -31 13 -29 30 3 30
19 0 25 5 22 18 -4 22 -46 29 -54 8z m41 -6 c3 -5 -3 -10 -15 -10 -12 0 -18 5
-15 10 3 6 10 10 15 10 5 0 12 -4 15 -10z"/>
<path d="M590 911 c0 -10 7 -21 15 -25 8 -3 15 -10 15 -17 0 -6 -7 -9 -15 -5
-8 3 -15 1 -15 -5 0 -6 10 -9 22 -7 30 4 37 38 9 45 -12 3 -21 10 -21 15 0 6
9 8 20 5 11 -3 20 -1 20 4 0 5 -11 9 -25 9 -18 0 -25 -5 -25 -19z"/>
<path d="M655 890 c0 -29 4 -40 15 -40 12 0 15 9 12 40 -2 22 -9 40 -16 40 -6
0 -11 -17 -11 -40z"/>
<path d="M710 921 c0 -5 9 -7 20 -4 27 7 25 -10 -2 -22 -35 -15 -29 -40 10
-42 26 -1 32 2 28 14 -3 8 -6 26 -6 39 0 19 -5 24 -25 24 -14 0 -25 -4 -25 -9z
m38 -43 c-6 -18 -28 -21 -28 -4 0 9 7 16 16 16 9 0 14 -5 12 -12z"/>
<path d="M910 915 c-20 -24 3 -67 33 -63 18 2 22 9 22 38 0 28 -4 36 -21 38
-11 2 -27 -4 -34 -13z m45 -25 c0 -13 -6 -25 -12 -27 -16 -6 -27 21 -19 43 9
23 31 11 31 -16z"/>
<path d="M1117 890 c19 -47 28 -50 38 -12 l8 27 10 -27 c14 -36 23 -35 36 3
13 39 14 49 2 49 -5 0 -11 -12 -13 -27 l-4 -28 -12 28 c-13 31 -32 28 -32 -4
0 -11 -4 -17 -10 -14 -5 3 -10 15 -10 26 0 10 -6 19 -14 19 -12 0 -12 -6 1
-40z"/>
<path d="M1240 920 c0 -5 6 -7 14 -4 8 3 17 1 20 -4 3 -6 -6 -13 -20 -16 -38
-10 -28 -41 14 -43 30 -1 32 1 26 25 -3 15 -7 33 -10 40 -4 14 -44 17 -44 2z
m38 -42 c-6 -18 -28 -21 -28 -4 0 9 7 16 16 16 9 0 14 -5 12 -12z"/>
<path d="M1315 889 c0 -35 3 -39 25 -39 18 0 21 3 12 9 -17 10 -11 57 6 54 6
-2 12 1 12 5 0 5 -12 9 -27 10 -26 0 -28 -2 -28 -39z"/>
<path d="M1394 916 c-12 -31 0 -61 26 -63 14 -1 18 0 8 3 -25 7 -22 34 3 34
14 0 19 5 17 18 -4 22 -46 29 -54 8z m41 -6 c3 -5 -1 -10 -9 -10 -9 0 -16 5
-16 10 0 6 4 10 9 10 6 0 13 -4 16 -10z"/>
<path d="M1604 916 c-12 -31 0 -61 26 -63 25 -3 25 -3 3 7 -31 13 -29 30 3 30
19 0 25 5 22 18 -4 22 -46 29 -54 8z m36 -6 c0 -5 -7 -10 -16 -10 -8 0 -12 5
-9 10 3 6 10 10 16 10 5 0 9 -4 9 -10z"/>
<path d="M1680 911 c0 -10 7 -21 15 -25 8 -3 15 -10 15 -17 0 -6 -7 -9 -15 -5
-8 3 -15 1 -15 -5 0 -6 10 -9 22 -7 30 4 37 38 9 45 -12 3 -21 10 -21 15 0 6
9 8 20 5 11 -3 20 -1 20 4 0 5 -11 9 -25 9 -18 0 -25 -5 -25 -19z"/>
<path d="M1805 890 c0 -29 4 -40 15 -40 12 0 15 9 12 40 -2 22 -9 40 -16 40
-6 0 -11 -17 -11 -40z"/>
<path d="M1855 888 c0 -30 4 -38 19 -38 15 0 16 3 6 15 -14 17 -4 58 13 52 7
-2 12 -18 12 -35 0 -21 5 -32 13 -32 9 0 12 6 8 16 -3 9 -6 26 -6 40 0 20 -5
23 -32 22 -31 -1 -33 -3 -33 -40z"/>
<path d="M1954 916 c-12 -31 0 -61 24 -60 12 0 22 -5 22 -13 0 -7 -9 -13 -21
-13 -11 0 -18 -4 -14 -10 3 -5 15 -6 28 -1 18 7 23 18 27 60 l6 51 -34 0 c-19
0 -35 -6 -38 -14z m44 -23 c-4 -33 -24 -41 -33 -14 -8 25 1 41 21 41 11 0 14
-8 12 -27z"/>
<path d="M2174 916 c-11 -29 1 -61 23 -64 26 -4 47 29 38 58 -7 24 -53 28 -61
6z m44 -23 c-4 -33 -24 -41 -33 -14 -8 25 1 41 21 41 11 0 14 -8 12 -27z"/>
<path d="M2260 921 c0 -5 9 -7 20 -4 27 7 25 -10 -2 -22 -35 -15 -29 -40 10
-42 27 -1 32 2 32 22 0 39 -11 55 -36 55 -13 0 -24 -4 -24 -9z m38 -43 c-6
-18 -28 -21 -28 -4 0 9 7 16 16 16 9 0 14 -5 12 -12z"/>
<path d="M2345 889 c-1 -33 2 -39 20 -39 15 0 16 3 7 9 -20 12 -11 57 11 53 9
-2 17 2 17 7 0 5 -12 9 -27 9 -26 -1 -28 -4 -28 -39z"/>
</g>
</svg>
